<?xml version="1.0" encoding="UTF-8" standalone="no"?>
<!-- Created with Inkscape (http://www.inkscape.org/) -->

<svg
   width="297mm"
   height="210mm"
   viewBox="0 0 297 210"
   version="1.1"
   id="svg1"
   sodipodi:docname="censoring_types.svg"
   inkscape:version="1.3 (1:1.3+202307231459+0e150ed6c4)"
   xmlns:inkscape="http://www.inkscape.org/namespaces/inkscape"
   xmlns:sodipodi="http://sodipodi.sourceforge.net/DTD/sodipodi-0.dtd"
   xmlns="http://www.w3.org/2000/svg"
   xmlns:svg="http://www.w3.org/2000/svg">
  <sodipodi:namedview
     id="namedview1"
     pagecolor="#ffffff"
     bordercolor="#000000"
     borderopacity="0.25"
     inkscape:showpageshadow="2"
     inkscape:pageopacity="0.0"
     inkscape:pagecheckerboard="0"
     inkscape:deskcolor="#d1d1d1"
     inkscape:document-units="mm"
     inkscape:zoom="1.0242632"
     inkscape:cx="728.81656"
     inkscape:cy="429.08892"
     inkscape:window-width="1920"
     inkscape:window-height="1011"
     inkscape:window-x="1920"
     inkscape:window-y="32"
     inkscape:window-maximized="1"
     inkscape:current-layer="layer1" />
  <defs
     id="defs1" />
  <g
     inkscape:label="Layer 1"
     inkscape:groupmode="layer"
     id="layer1">
    <path
       style="fill:none;fill-opacity:0.985838;stroke:#000014;stroke-width:0.555001;stroke-opacity:1"
       d="M 1.408879,59.335061 H 296.11619"
       id="path1" />
    <path
       style="fill:none;fill-opacity:0.985838;stroke:#000014;stroke-width:0.555001;stroke-opacity:1"
       d="M 92.264877,43.565869 V 149.56005 187.6008"
       id="path2" />
    <path
       style="fill:none;fill-opacity:0.985838;stroke:#000014;stroke-width:0.555001;stroke-opacity:1"
       d="m 197.01171,44.231962 0.62617,105.716688 0.70554,36.98241"
       id="path3" />
    <path
       style="fill:none;fill-opacity:0.985838;stroke:#000014;stroke-width:0.555001;stroke-opacity:1"
       d="m 148.15266,86.785623 c -5.40554,-1.031841 -9.37754,-0.989589 -14.91354,-0.07743 -1.66669,0.274619 -4.30506,0.582752 -5.84296,1.736174 -1.31296,0.984721 -2.58377,2.775794 -3.47006,4.004069 -0.48279,0.669073 -1.05843,1.311556 -1.31934,2.094291 -0.16338,0.49012 0,1.033262 0,1.549892 0,0.861055 -0.12052,1.730582 0,2.583159 0.24791,1.753882 1.17938,3.730632 0.87246,5.572182 -0.46837,2.81021 -2.85917,4.69441 -3.9935,7.14997 -0.275,0.59529 -0.37915,1.25597 -0.53924,1.89187 -0.26583,1.05595 -0.58024,5.95066 -0.27414,7.02201 0.5601,1.96037 0.45022,0.1846 0.77494,1.80821 0.19811,0.99051 0.2229,2.12067 0.51664,3.09979 0.3832,1.27734 1.29842,2.33396 2.06653,3.35811 0.56827,0.75769 0.74816,1.80683 1.29158,2.58315 0.55162,0.78803 1.68738,2.2418 2.58316,2.84148 0.38238,0.25598 0.86113,0.34772 1.28514,0.77173 1.07155,1.07154 1.43247,3.79094 1.80498,5.15337 0.80434,2.94177 2.15782,5.9051 4.6606,7.78219 1.20917,0.90687 5.89173,0.65941 7.49115,0.25831 0.70251,-0.17617 1.59467,0.0808 2.31524,0 1.59112,-0.17844 1.15902,-0.40979 2.86903,-0.52213 2.27524,-0.14948 4.43109,0.14941 6.69244,-0.30577 1.42297,-0.28644 3.24892,-0.67454 4.58837,-1.34426 0.89135,-0.44568 1.47922,-1.2797 2.32484,-1.80821 0.32654,-0.20409 0.76097,-0.24434 1.03326,-0.51663 0.44866,-0.44865 0.92484,-1.9326 1.03326,-2.58316 0.0425,-0.2548 -0.071,-0.52657 0,-0.77495 0.10579,-0.37026 0.39487,-0.66795 0.51664,-1.03326 0.38111,-1.14335 -0.15671,-3.39605 0,-4.64968 0.24612,-1.96902 0.4985,-3.99541 0.78034,-5.96824 0.14167,-0.99173 0.64398,-1.14979 0.77494,-2.06653 0.10702,-0.74909 0.25621,-2.31182 0,-3.08041 -0.20107,-0.60321 -0.74034,-0.95921 -0.49727,-1.6884 0.53429,-1.6028 2.45564,-2.01376 3.08437,-3.58558 0.32791,-0.81978 0.37573,-1.73774 0.51663,-2.58316 0.13985,-0.83905 0.65788,-1.50536 0.77495,-2.32484 0.14415,-1.00906 0.19236,-3.68786 0,-4.64968 -0.0378,-0.1888 -0.22028,-0.32789 -0.25831,-0.51663 -0.0844,-0.41884 0.10362,-0.86727 0,-1.28177 -0.27268,-1.09069 -0.14503,-0.0961 -0.50554,-0.76383 -1.49662,-2.77201 -4.52871,-3.79572 -7.46476,-4.52974 -0.8362,-0.20905 -2.17045,-0.10392 -2.84148,-0.77495 -1.87256,-2.808845 0.53574,0.52592 -1.03326,-1.033255 -0.0459,-0.04559 -0.18861,-4.152062 -0.25831,-4.639996 -0.10042,-0.702905 -0.37705,-1.37034 -0.51664,-2.066528 -0.0794,-0.396314 0.0652,-0.872857 0,-1.262425 -0.16308,-0.974397 -0.87459,-2.010171 -1.29157,-2.841474 -0.22052,-0.439618 -0.57275,-1.817081 -1.02674,-2.050208 -0.0613,-0.03146 -0.68416,-0.46263 -0.70654,-0.46491 -0.13325,-0.01357 -0.2318,0.138951 -0.35939,0.179697 -0.0576,0.01841 -0.40036,-0.02164 -0.44226,0 -0.28238,0.145809 -0.42697,0.578051 -0.7139,0.713909 -0.97155,0.460007 -1.19606,0.204547 -2.38274,-0.365527 z"
       id="path4-5" />
    <path
       style="fill:none;fill-opacity:0.985838;stroke:#000014;stroke-width:0.555001;stroke-opacity:1;stroke-dasharray:3.33000612,3.33000612;stroke-dashoffset:0"
       d="m 102.37819,64.618284 25.01797,23.826081"
       id="path9" />
    <path
       style="fill:none;fill-opacity:0.985838;stroke:#000014;stroke-width:0.555001;stroke-opacity:1;stroke-dasharray:3.33000612,3.33000612;stroke-dashoffset:0"
       d="m 112.40305,148.60699 16.40146,-9.46938"
       id="path10" />
    <path
       style="fill:none;fill-opacity:0.985838;stroke:#000014;stroke-width:0.555001;stroke-opacity:1;stroke-dasharray:3.33000612,3.33000612;stroke-dashoffset:0"
       d="m 166.92443,117.12906 20.82932,-12.02582"
       id="path12" />
    <path
       style="fill:none;fill-opacity:1;stroke:#000014;stroke-width:0.555001;stroke-dasharray:3.33000612,3.33000612;stroke-dashoffset:0;stroke-opacity:1"
       d="m 146.18793,64.417333 22.17768,28.601368"
       id="path30" />
    <path
       style="fill:none;fill-opacity:1;stroke:#000014;stroke-width:0.555001;stroke-dasharray:3.33000612,3.33000612;stroke-dashoffset:0;stroke-opacity:1"
       d="M 96.027943,115.58333 H 113.54824"
       id="path31" />
    <g
       id="g23">
      <path
         style="fill:none;fill-opacity:0.985838;stroke:#000014;stroke-width:0.555001;stroke-opacity:1"
         d="m 46.048045,86.785622 c -5.405543,-1.031841 -9.377539,-0.989589 -14.913541,-0.07743 -1.666687,0.274619 -4.305062,0.582752 -5.842958,1.736174 -1.312963,0.984721 -2.583768,2.775794 -3.470062,4.004069 -0.482789,0.669073 -1.058432,1.311556 -1.319343,2.094291 -0.163374,0.49012 0,1.033262 0,1.549892 0,0.861052 -0.120514,1.730582 0,2.583162 0.247915,1.75388 1.179386,3.73063 0.872462,5.57218 -0.468369,2.81021 -2.859165,4.69441 -3.993505,7.14997 -0.274993,0.59529 -0.379147,1.25597 -0.539232,1.89187 -0.265834,1.05595 -0.580245,5.95066 -0.274145,7.02201 0.560106,1.96037 0.450224,0.1846 0.774947,1.80821 0.198101,0.99051 0.222892,2.12067 0.516631,3.09979 0.383207,1.27734 1.298429,2.33396 2.066535,3.35811 0.568273,0.75769 0.748157,1.80683 1.291578,2.58315 0.551619,0.78803 1.68738,2.2418 2.583158,2.84148 0.382382,0.25598 0.861137,0.34772 1.285146,0.77173 1.071544,1.07154 1.432465,3.79094 1.804977,5.15337 0.804336,2.94177 2.157823,5.9051 4.660596,7.78219 1.20917,0.90687 5.891734,0.65941 7.491156,0.25831 0.702506,-0.17617 1.594667,0.0808 2.315242,0 1.591119,-0.17844 1.159012,-0.40979 2.86903,-0.52213 2.275237,-0.14948 4.431086,0.14941 6.692434,-0.30577 1.422974,-0.28644 3.248927,-0.67454 4.58837,-1.34426 0.891355,-0.44568 1.479219,-1.2797 2.324841,-1.80821 0.326543,-0.20409 0.760976,-0.24434 1.033264,-0.51663 0.448654,-0.44865 0.924838,-1.9326 1.033261,-2.58316 0.04247,-0.2548 -0.07096,-0.52657 0,-0.77495 0.105789,-0.37026 0.394862,-0.66795 0.516634,-1.03326 0.381116,-1.14335 -0.156705,-3.39605 0,-4.64968 0.246126,-1.96902 0.498504,-3.99541 0.780338,-5.96824 0.141676,-0.99173 0.643985,-1.14979 0.774949,-2.06653 0.107013,-0.74909 0.256209,-2.31182 0,-3.08041 -0.201078,-0.60321 -0.740347,-0.95921 -0.497272,-1.6884 0.534289,-1.6028 2.455641,-2.01376 3.08437,-3.58558 0.327911,-0.81978 0.375727,-1.73774 0.516631,-2.58316 0.139843,-0.83905 0.657878,-1.50536 0.774948,-2.32484 0.144151,-1.00906 0.192363,-3.68786 0,-4.64968 -0.03776,-0.1888 -0.220278,-0.32789 -0.258315,-0.51663 -0.08441,-0.41884 0.103624,-0.86727 0,-1.28177 -0.272674,-1.09069 -0.145026,-0.0961 -0.505534,-0.76383 -1.496624,-2.77201 -4.528709,-3.79572 -7.464764,-4.52974 -0.836199,-0.20905 -2.170448,-0.10392 -2.841474,-0.77495 -1.872567,-2.80885 0.535731,0.52592 -1.033261,-1.03326 -0.04588,-0.0456 -0.188611,-4.152058 -0.258315,-4.639992 -0.100418,-0.702905 -0.37705,-1.37034 -0.516634,-2.066528 -0.07946,-0.396314 0.0652,-0.872857 0,-1.262425 -0.163086,-0.974397 -0.874596,-2.010171 -1.291577,-2.841474 -0.220514,-0.439618 -0.572746,-1.817081 -1.026736,-2.050208 -0.06127,-0.03146 -0.684163,-0.46263 -0.706538,-0.46491 -0.13325,-0.01357 -0.231804,0.138951 -0.359395,0.179697 -0.05764,0.01841 -0.400359,-0.02164 -0.442261,0 -0.282382,0.145809 -0.426966,0.578051 -0.713899,0.713909 -0.971553,0.460007 -1.196057,0.204547 -2.382737,-0.365527 z"
         id="path4" />
      <path
         style="fill:none;fill-opacity:0.985838;stroke:#000014;stroke-width:0.555001;stroke-dasharray:2.22, 2.22;stroke-dashoffset:0;stroke-opacity:1"
         d="M 57.62087,101.39129 74.994671,84.017489"
         id="path17" />
      <path
         style="fill:none;fill-opacity:0.985838;stroke:#000014;stroke-width:0.555001;stroke-dasharray:none;stroke-dashoffset:0;stroke-opacity:1"
         d="M 57.62087,101.39129 43.976028,115.03613"
         id="path18" />
      <path
         style="fill:none;fill-opacity:0.985838;stroke:#000014;stroke-width:0.555001;stroke-dasharray:2.22000408,2.22000408;stroke-dashoffset:0;stroke-opacity:1"
         d="M 17.381098,111.39793 7.2050113,93.772431"
         id="path19" />
      <path
         style="fill:none;fill-opacity:0.985838;stroke:#000014;stroke-width:0.555001;stroke-dasharray:none;stroke-dashoffset:0;stroke-opacity:1"
         d="M 17.381098,111.39793 38.553554,148.0697"
         id="path20" />
      <path
         style="fill:none;fill-opacity:0.985838;stroke:#000014;stroke-width:0.555001;stroke-dasharray:2.22000408,2.22000408;stroke-dashoffset:0;stroke-opacity:1"
         d="m 38.553554,148.0697 16.084131,27.85853"
         id="path21" />
      <path
         style="fill:none;fill-opacity:0.985838;stroke:#000014;stroke-width:0.555001;stroke-dasharray:none;stroke-dashoffset:0;stroke-opacity:1"
         d="m 51.679609,88.77266 -4.411636,4.411636"
         id="path22" />
      <path
         style="fill:none;fill-opacity:0.985838;stroke:#000014;stroke-width:0.555001;stroke-dasharray:2.22000408,2.22000408;stroke-dashoffset:0;stroke-opacity:1"
         d="M 51.679609,88.77266 75.72798,64.72429"
         id="path23" />
    </g>
    <text
       xml:space="preserve"
       style="font-size:9.87777px;fill:#000000;fill-opacity:1;stroke:none;stroke-width:0.555001;stroke-dasharray:none;stroke-dashoffset:0;stroke-opacity:1"
       x="27.817976"
       y="53.151638"
       id="text25"><tspan
         sodipodi:role="line"
         id="tspan25"
         style="fill:#000000;fill-opacity:1;stroke:none;stroke-width:0.555;stroke-dasharray:none"
         x="27.817976"
         y="53.151638">Right</tspan></text>
    <text
       xml:space="preserve"
       style="font-size:9.87777px;fill:#000000;fill-opacity:1;stroke:none;stroke-width:0.555001;stroke-dasharray:none;stroke-dashoffset:0;stroke-opacity:1"
       x="135.47063"
       y="54.109028"
       id="text25-7"><tspan
         sodipodi:role="line"
         id="tspan25-0"
         style="fill:#000000;fill-opacity:1;stroke:none;stroke-width:0.555;stroke-dasharray:none"
         x="135.47063"
         y="54.109028">Left</tspan></text>
    <g
       id="g1"
       transform="translate(209.63985,-0.30215367)">
      <text
         xml:space="preserve"
         style="font-size:9.87777px;fill:#000000;fill-opacity:1;stroke:none;stroke-width:0.555001;stroke-dasharray:none;stroke-dashoffset:0;stroke-opacity:1"
         x="18.651575"
         y="54.411182"
         id="text25-0"><tspan
           sodipodi:role="line"
           id="tspan25-6"
           style="fill:#000000;fill-opacity:1;stroke:none;stroke-width:0.555;stroke-dasharray:none"
           x="18.651575"
           y="54.411182">Interval</tspan></text>
    </g>
    <g
       id="g31">
      <path
         style="fill:none;fill-opacity:0.985838;stroke:#000014;stroke-width:0.555001;stroke-opacity:1"
         d="m 250.87621,86.785621 c -5.40554,-1.031841 -9.37754,-0.989589 -14.91354,-0.07743 -1.66669,0.274619 -4.30506,0.582752 -5.84296,1.736174 -1.31296,0.984721 -2.58377,2.775794 -3.47006,4.004069 -0.48279,0.669073 -1.05843,1.311556 -1.31934,2.094291 -0.16338,0.49012 0,1.033262 0,1.549892 0,0.861055 -0.12052,1.730582 0,2.583159 0.24791,1.753884 1.17938,3.730634 0.87246,5.572184 -0.46837,2.81021 -2.85917,4.69441 -3.99351,7.14997 -0.27499,0.59529 -0.37914,1.25597 -0.53923,1.89187 -0.26583,1.05595 -0.58024,5.95066 -0.27414,7.02201 0.5601,1.96037 0.45022,0.1846 0.77494,1.80821 0.19811,0.99051 0.2229,2.12067 0.51664,3.09979 0.3832,1.27734 1.29842,2.33396 2.06653,3.35811 0.56827,0.75769 0.74816,1.80683 1.29158,2.58315 0.55162,0.78803 1.68738,2.2418 2.58316,2.84148 0.38238,0.25598 0.86113,0.34772 1.28514,0.77173 1.07155,1.07154 1.43247,3.79094 1.80498,5.15337 0.80434,2.94177 2.15782,5.9051 4.6606,7.78219 1.20917,0.90687 5.89173,0.65941 7.49115,0.25831 0.70251,-0.17617 1.59467,0.0808 2.31524,0 1.59112,-0.17844 1.15902,-0.40979 2.86903,-0.52213 2.27524,-0.14948 4.43109,0.14941 6.69244,-0.30577 1.42297,-0.28644 3.24893,-0.67454 4.58837,-1.34426 0.89135,-0.44568 1.47922,-1.2797 2.32484,-1.80821 0.32654,-0.20409 0.76097,-0.24434 1.03326,-0.51663 0.44866,-0.44865 0.92484,-1.9326 1.03326,-2.58316 0.0425,-0.2548 -0.071,-0.52657 0,-0.77495 0.10579,-0.37026 0.39487,-0.66795 0.51664,-1.03326 0.38111,-1.14335 -0.15671,-3.39605 0,-4.64968 0.24612,-1.96902 0.4985,-3.99541 0.78034,-5.96824 0.14167,-0.99173 0.64398,-1.14979 0.77495,-2.06653 0.10701,-0.74909 0.2562,-2.31182 0,-3.08041 -0.20108,-0.60321 -0.74035,-0.95921 -0.49728,-1.6884 0.53429,-1.6028 2.45564,-2.01376 3.08437,-3.58558 0.32791,-0.81978 0.37573,-1.73774 0.51663,-2.58316 0.13985,-0.83905 0.65788,-1.50536 0.77495,-2.32484 0.14415,-1.00906 0.19236,-3.68786 0,-4.64968 -0.0378,-0.1888 -0.22028,-0.32789 -0.25831,-0.51663 -0.0844,-0.41884 0.10362,-0.86727 0,-1.28177 -0.27268,-1.09069 -0.14503,-0.0961 -0.50554,-0.76383 -1.49662,-2.77201 -4.52871,-3.79572 -7.46476,-4.52974 -0.8362,-0.20905 -2.17045,-0.10392 -2.84148,-0.77495 -1.87256,-2.808847 0.53574,0.52592 -1.03326,-1.033257 -0.0459,-0.04559 -0.18861,-4.152062 -0.25831,-4.639996 -0.10042,-0.702905 -0.37705,-1.37034 -0.51664,-2.066528 -0.0795,-0.396314 0.0652,-0.872857 0,-1.262425 -0.16308,-0.974397 -0.87459,-2.010171 -1.29157,-2.841474 -0.22052,-0.439618 -0.57275,-1.817081 -1.02674,-2.050208 -0.0613,-0.03146 -0.68416,-0.46263 -0.70654,-0.46491 -0.13325,-0.01357 -0.2318,0.138951 -0.35939,0.179697 -0.0576,0.01841 -0.40036,-0.02164 -0.44226,0 -0.28238,0.145809 -0.42697,0.578051 -0.7139,0.713909 -0.97155,0.460007 -1.19606,0.204547 -2.38274,-0.365527 z"
         id="path4-2" />
      <path
         style="fill:none;fill-opacity:0.985838;stroke:#000014;stroke-width:0.555001;stroke-opacity:1"
         d="m 246.85134,107.6631 c -0.55067,0.43875 -1.24641,0.43736 -1.84644,0.73833 -0.16327,0.0819 -0.24135,0.27788 -0.38747,0.38747 -0.2838,0.21285 -0.53015,0.22287 -0.77495,0.51663 -0.47552,0.57063 -0.8304,1.23174 -1.29158,1.80821 -1.08181,1.35227 -1.92621,2.08773 -1.16242,3.8699 0.26046,0.60774 0.61038,1.152 0.77495,1.80821 0.27933,1.11384 -0.47353,1.93381 -0.64579,2.9674 -0.13217,0.79302 -0.067,4.05963 0.12916,4.77884 0.10103,0.37047 0.84201,1.90882 1.03326,2.19569 0.13509,0.20264 0.38115,0.31425 0.51663,0.51663 0.1968,0.29398 0.15481,0.65868 0.51663,0.90091 0.14565,0.0975 0.35343,0.049 0.51014,0.12753 0.44498,0.22296 0.28449,0.30465 0.77172,0.38586 1.02882,0.17147 2.35421,-0.0458 3.22895,0.12916 0.59645,0.11929 0.89724,0.47262 1.39751,0.63804 0.12263,0.0406 0.26495,-0.0408 0.38747,0 0.14727,0.0491 0.24864,0.1889 0.38748,0.25832 0.59463,0.29731 0.17104,0.008 0.77494,0.12916 0.33936,0.0679 0.68934,0.30149 1.02674,0.38584 0.35656,0.0891 0.79128,0 1.16242,0 0.37609,0 1.07392,0.13873 1.42074,0 0.62345,-0.24938 2.0719,-1.70591 2.19568,-2.32484 0.0253,-0.12665 -0.0408,-0.26495 0,-0.38748 0.0491,-0.14726 0.20923,-0.24021 0.25832,-0.38747 0.25149,-0.75448 -0.19838,-1.85745 -0.64579,-2.454 -0.94418,-1.2589 -0.17899,0.0892 -0.77495,-0.9041 -0.4133,-0.68885 -0.74758,-1.37513 -1.16242,-2.06653 -0.1323,-0.22051 -0.12601,-0.42528 -0.25831,-0.64579 -0.0627,-0.10442 -0.18526,-0.1609 -0.25832,-0.25832 -0.15056,-0.20074 -0.38261,-1.01866 -0.38747,-1.03326 -0.38794,-1.16382 -0.25832,-2.39414 -0.25832,-3.61642 0,-0.29887 0.0946,-0.74782 0,-1.03165 -0.0949,-0.28471 -0.2083,-0.61957 -0.37749,-0.87579 -0.0981,-0.14864 -0.27898,-0.2297 -0.37785,-0.37785 -0.0945,-0.14153 -0.15259,-0.46745 -0.25672,-0.64099 -0.0861,-0.12915 -0.17221,-0.25831 -0.25831,-0.38747 -0.0431,-0.0431 -0.0953,-0.0785 -0.12916,-0.12916 -0.18381,-0.27513 -0.23189,-0.59227 -0.38262,-0.89277 -0.13973,-0.27857 -0.5912,-0.75878 -0.77495,-1.03326 -0.17195,-0.25686 -0.23376,-0.66995 -0.38586,-0.8976 -0.10103,-0.15121 -0.2849,-0.23446 -0.38578,-0.38577 -0.30137,-0.45207 -0.51874,-1.03538 -0.90411,-1.42074 -0.15091,-0.15092 -0.46666,-0.25333 -0.63863,-0.38271 -0.19824,-0.14914 -0.7073,-0.62566 -1.03004,-0.51663 -0.28276,0.0955 -0.49132,0.33898 -0.73699,0.50847 z"
         id="path13" />
      <path
         style="fill:none;fill-opacity:0.985838;stroke:#000014;stroke-width:0.555001;stroke-opacity:1"
         d="m 230.96529,93.601666 10.72975,18.584484"
         id="path14" />
      <path
         style="fill:none;fill-opacity:1;stroke:#000014;stroke-width:0.555001;stroke-dasharray:2.22, 2.22;stroke-dashoffset:0;stroke-opacity:1"
         d="m 241.69504,112.18615 10.38265,17.98328"
         id="path28" />
      <path
         style="fill:none;fill-opacity:1;stroke:#000014;stroke-width:0.555001;stroke-dasharray:2.22, 2.22;stroke-dashoffset:0;stroke-opacity:1"
         d="m 241.69504,112.18615 9.00803,2.70745 -7.72307,7.79792 9.09769,7.47791"
         id="path27" />
    </g>
  </g>
</svg>
