<?xml version="1.0" encoding="utf-8" standalone="no"?>
<!DOCTYPE svg PUBLIC "-//W3C//DTD SVG 1.1//EN"
  "http://www.w3.org/Graphics/SVG/1.1/DTD/svg11.dtd">
<svg xmlns:xlink="http://www.w3.org/1999/xlink" width="460.8pt" height="345.6pt" viewBox="0 0 460.8 345.6" xmlns="http://www.w3.org/2000/svg" version="1.1">
 <metadata>
  <rdf:RDF xmlns:dc="http://purl.org/dc/elements/1.1/" xmlns:cc="http://creativecommons.org/ns#" xmlns:rdf="http://www.w3.org/1999/02/22-rdf-syntax-ns#">
   <cc:Work>
    <dc:type rdf:resource="http://purl.org/dc/dcmitype/StillImage"/>
    <dc:date>2024-04-11T16:28:13.197589</dc:date>
    <dc:format>image/svg+xml</dc:format>
    <dc:creator>
     <cc:Agent>
      <dc:title>Matplotlib v3.7.1, https://matplotlib.org/</dc:title>
     </cc:Agent>
    </dc:creator>
   </cc:Work>
  </rdf:RDF>
 </metadata>
 <defs>
  <style type="text/css">*{stroke-linejoin: round; stroke-linecap: butt}</style>
 </defs>
 <g id="figure_1">
  <g id="patch_1">
   <path d="M 0 345.6 
L 460.8 345.6 
L 460.8 0 
L 0 0 
z
" style="fill: #ffffff"/>
  </g>
  <g id="axes_1">
   <g id="patch_2">
    <path d="M 57.6 307.584 
L 414.72 307.584 
L 414.72 41.472 
L 57.6 41.472 
z
" style="fill: #ffffff"/>
   </g>
   <g id="patch_3">
    <path d="M 73.832727 307.584 
L 78.985974 307.584 
L 78.985974 143.365224 
L 73.832727 143.365224 
z
" clip-path="url(#pdb9a494ca2)" style="fill: #1f77b4; fill-opacity: 0.75; stroke: #000000; stroke-width: 0.515325; stroke-linejoin: miter"/>
   </g>
   <g id="patch_4">
    <path d="M 78.985974 307.584 
L 84.139221 307.584 
L 84.139221 54.144 
L 78.985974 54.144 
z
" clip-path="url(#pdb9a494ca2)" style="fill: #1f77b4; fill-opacity: 0.75; stroke: #000000; stroke-width: 0.515325; stroke-linejoin: miter"/>
   </g>
   <g id="patch_5">
    <path d="M 84.139221 307.584 
L 89.292468 307.584 
L 89.292468 105.866449 
L 84.139221 105.866449 
z
" clip-path="url(#pdb9a494ca2)" style="fill: #1f77b4; fill-opacity: 0.75; stroke: #000000; stroke-width: 0.515325; stroke-linejoin: miter"/>
   </g>
   <g id="patch_6">
    <path d="M 89.292468 307.584 
L 94.445714 307.584 
L 94.445714 158.881959 
L 89.292468 158.881959 
z
" clip-path="url(#pdb9a494ca2)" style="fill: #1f77b4; fill-opacity: 0.75; stroke: #000000; stroke-width: 0.515325; stroke-linejoin: miter"/>
   </g>
   <g id="patch_7">
    <path d="M 94.445714 307.584 
L 99.598961 307.584 
L 99.598961 148.537469 
L 94.445714 148.537469 
z
" clip-path="url(#pdb9a494ca2)" style="fill: #1f77b4; fill-opacity: 0.75; stroke: #000000; stroke-width: 0.515325; stroke-linejoin: miter"/>
   </g>
   <g id="patch_8">
    <path d="M 99.598961 307.584 
L 104.752208 307.584 
L 104.752208 209.311347 
L 99.598961 209.311347 
z
" clip-path="url(#pdb9a494ca2)" style="fill: #1f77b4; fill-opacity: 0.75; stroke: #000000; stroke-width: 0.515325; stroke-linejoin: miter"/>
   </g>
   <g id="patch_9">
    <path d="M 104.752208 307.584 
L 109.905455 307.584 
L 109.905455 224.828082 
L 104.752208 224.828082 
z
" clip-path="url(#pdb9a494ca2)" style="fill: #1f77b4; fill-opacity: 0.75; stroke: #000000; stroke-width: 0.515325; stroke-linejoin: miter"/>
   </g>
   <g id="patch_10">
    <path d="M 109.905455 307.584 
L 115.058701 307.584 
L 115.058701 244.224 
L 109.905455 244.224 
z
" clip-path="url(#pdb9a494ca2)" style="fill: #1f77b4; fill-opacity: 0.75; stroke: #000000; stroke-width: 0.515325; stroke-linejoin: miter"/>
   </g>
   <g id="patch_11">
    <path d="M 115.058701 307.584 
L 120.211948 307.584 
L 120.211948 251.982367 
L 115.058701 251.982367 
z
" clip-path="url(#pdb9a494ca2)" style="fill: #1f77b4; fill-opacity: 0.75; stroke: #000000; stroke-width: 0.515325; stroke-linejoin: miter"/>
   </g>
   <g id="patch_12">
    <path d="M 120.211948 307.584 
L 125.365195 307.584 
L 125.365195 273.964408 
L 120.211948 273.964408 
z
" clip-path="url(#pdb9a494ca2)" style="fill: #1f77b4; fill-opacity: 0.75; stroke: #000000; stroke-width: 0.515325; stroke-linejoin: miter"/>
   </g>
   <g id="patch_13">
    <path d="M 125.365195 307.584 
L 130.518442 307.584 
L 130.518442 280.429714 
L 125.365195 280.429714 
z
" clip-path="url(#pdb9a494ca2)" style="fill: #1f77b4; fill-opacity: 0.75; stroke: #000000; stroke-width: 0.515325; stroke-linejoin: miter"/>
   </g>
   <g id="patch_14">
    <path d="M 130.518442 307.584 
L 135.671688 307.584 
L 135.671688 280.429714 
L 130.518442 280.429714 
z
" clip-path="url(#pdb9a494ca2)" style="fill: #1f77b4; fill-opacity: 0.75; stroke: #000000; stroke-width: 0.515325; stroke-linejoin: miter"/>
   </g>
   <g id="patch_15">
    <path d="M 135.671688 307.584 
L 140.824935 307.584 
L 140.824935 290.774204 
L 135.671688 290.774204 
z
" clip-path="url(#pdb9a494ca2)" style="fill: #1f77b4; fill-opacity: 0.75; stroke: #000000; stroke-width: 0.515325; stroke-linejoin: miter"/>
   </g>
   <g id="patch_16">
    <path d="M 140.824935 307.584 
L 145.978182 307.584 
L 145.978182 294.653388 
L 140.824935 294.653388 
z
" clip-path="url(#pdb9a494ca2)" style="fill: #1f77b4; fill-opacity: 0.75; stroke: #000000; stroke-width: 0.515325; stroke-linejoin: miter"/>
   </g>
   <g id="patch_17">
    <path d="M 145.978182 307.584 
L 151.131429 307.584 
L 151.131429 290.774204 
L 145.978182 290.774204 
z
" clip-path="url(#pdb9a494ca2)" style="fill: #1f77b4; fill-opacity: 0.75; stroke: #000000; stroke-width: 0.515325; stroke-linejoin: miter"/>
   </g>
   <g id="patch_18">
    <path d="M 151.131429 307.584 
L 156.284675 307.584 
L 156.284675 293.360327 
L 151.131429 293.360327 
z
" clip-path="url(#pdb9a494ca2)" style="fill: #1f77b4; fill-opacity: 0.75; stroke: #000000; stroke-width: 0.515325; stroke-linejoin: miter"/>
   </g>
   <g id="patch_19">
    <path d="M 156.284675 307.584 
L 161.437922 307.584 
L 161.437922 285.601959 
L 156.284675 285.601959 
z
" clip-path="url(#pdb9a494ca2)" style="fill: #1f77b4; fill-opacity: 0.75; stroke: #000000; stroke-width: 0.515325; stroke-linejoin: miter"/>
   </g>
   <g id="patch_20">
    <path d="M 161.437922 307.584 
L 166.591169 307.584 
L 166.591169 288.188082 
L 161.437922 288.188082 
z
" clip-path="url(#pdb9a494ca2)" style="fill: #1f77b4; fill-opacity: 0.75; stroke: #000000; stroke-width: 0.515325; stroke-linejoin: miter"/>
   </g>
   <g id="patch_21">
    <path d="M 166.591169 307.584 
L 171.744416 307.584 
L 171.744416 292.067265 
L 166.591169 292.067265 
z
" clip-path="url(#pdb9a494ca2)" style="fill: #1f77b4; fill-opacity: 0.75; stroke: #000000; stroke-width: 0.515325; stroke-linejoin: miter"/>
   </g>
   <g id="patch_22">
    <path d="M 171.744416 307.584 
L 176.897662 307.584 
L 176.897662 301.118694 
L 171.744416 301.118694 
z
" clip-path="url(#pdb9a494ca2)" style="fill: #1f77b4; fill-opacity: 0.75; stroke: #000000; stroke-width: 0.515325; stroke-linejoin: miter"/>
   </g>
   <g id="patch_23">
    <path d="M 176.897662 307.584 
L 182.050909 307.584 
L 182.050909 299.825633 
L 176.897662 299.825633 
z
" clip-path="url(#pdb9a494ca2)" style="fill: #1f77b4; fill-opacity: 0.75; stroke: #000000; stroke-width: 0.515325; stroke-linejoin: miter"/>
   </g>
   <g id="patch_24">
    <path d="M 182.050909 307.584 
L 187.204156 307.584 
L 187.204156 299.825633 
L 182.050909 299.825633 
z
" clip-path="url(#pdb9a494ca2)" style="fill: #1f77b4; fill-opacity: 0.75; stroke: #000000; stroke-width: 0.515325; stroke-linejoin: miter"/>
   </g>
   <g id="patch_25">
    <path d="M 187.204156 307.584 
L 192.357403 307.584 
L 192.357403 306.290939 
L 187.204156 306.290939 
z
" clip-path="url(#pdb9a494ca2)" style="fill: #1f77b4; fill-opacity: 0.75; stroke: #000000; stroke-width: 0.515325; stroke-linejoin: miter"/>
   </g>
   <g id="patch_26">
    <path d="M 192.357403 307.584 
L 197.510649 307.584 
L 197.510649 303.704816 
L 192.357403 303.704816 
z
" clip-path="url(#pdb9a494ca2)" style="fill: #1f77b4; fill-opacity: 0.75; stroke: #000000; stroke-width: 0.515325; stroke-linejoin: miter"/>
   </g>
   <g id="patch_27">
    <path d="M 197.510649 307.584 
L 202.663896 307.584 
L 202.663896 299.825633 
L 197.510649 299.825633 
z
" clip-path="url(#pdb9a494ca2)" style="fill: #1f77b4; fill-opacity: 0.75; stroke: #000000; stroke-width: 0.515325; stroke-linejoin: miter"/>
   </g>
   <g id="patch_28">
    <path d="M 202.663896 307.584 
L 207.817143 307.584 
L 207.817143 303.704816 
L 202.663896 303.704816 
z
" clip-path="url(#pdb9a494ca2)" style="fill: #1f77b4; fill-opacity: 0.75; stroke: #000000; stroke-width: 0.515325; stroke-linejoin: miter"/>
   </g>
   <g id="patch_29">
    <path d="M 207.817143 307.584 
L 212.97039 307.584 
L 212.97039 304.997878 
L 207.817143 304.997878 
z
" clip-path="url(#pdb9a494ca2)" style="fill: #1f77b4; fill-opacity: 0.75; stroke: #000000; stroke-width: 0.515325; stroke-linejoin: miter"/>
   </g>
   <g id="patch_30">
    <path d="M 212.97039 307.584 
L 218.123636 307.584 
L 218.123636 306.290939 
L 212.97039 306.290939 
z
" clip-path="url(#pdb9a494ca2)" style="fill: #1f77b4; fill-opacity: 0.75; stroke: #000000; stroke-width: 0.515325; stroke-linejoin: miter"/>
   </g>
   <g id="patch_31">
    <path d="M 218.123636 307.584 
L 223.276883 307.584 
L 223.276883 306.290939 
L 218.123636 306.290939 
z
" clip-path="url(#pdb9a494ca2)" style="fill: #1f77b4; fill-opacity: 0.75; stroke: #000000; stroke-width: 0.515325; stroke-linejoin: miter"/>
   </g>
   <g id="patch_32">
    <path d="M 223.276883 307.584 
L 228.43013 307.584 
L 228.43013 304.997878 
L 223.276883 304.997878 
z
" clip-path="url(#pdb9a494ca2)" style="fill: #1f77b4; fill-opacity: 0.75; stroke: #000000; stroke-width: 0.515325; stroke-linejoin: miter"/>
   </g>
   <g id="patch_33">
    <path d="M 228.43013 307.584 
L 233.583377 307.584 
L 233.583377 307.584 
L 228.43013 307.584 
z
" clip-path="url(#pdb9a494ca2)" style="fill: #1f77b4; fill-opacity: 0.75; stroke: #000000; stroke-width: 0.515325; stroke-linejoin: miter"/>
   </g>
   <g id="patch_34">
    <path d="M 233.583377 307.584 
L 238.736623 307.584 
L 238.736623 307.584 
L 233.583377 307.584 
z
" clip-path="url(#pdb9a494ca2)" style="fill: #1f77b4; fill-opacity: 0.75; stroke: #000000; stroke-width: 0.515325; stroke-linejoin: miter"/>
   </g>
   <g id="patch_35">
    <path d="M 238.736623 307.584 
L 243.88987 307.584 
L 243.88987 306.290939 
L 238.736623 306.290939 
z
" clip-path="url(#pdb9a494ca2)" style="fill: #1f77b4; fill-opacity: 0.75; stroke: #000000; stroke-width: 0.515325; stroke-linejoin: miter"/>
   </g>
   <g id="patch_36">
    <path d="M 243.88987 307.584 
L 249.043117 307.584 
L 249.043117 304.997878 
L 243.88987 304.997878 
z
" clip-path="url(#pdb9a494ca2)" style="fill: #1f77b4; fill-opacity: 0.75; stroke: #000000; stroke-width: 0.515325; stroke-linejoin: miter"/>
   </g>
   <g id="patch_37">
    <path d="M 249.043117 307.584 
L 254.196364 307.584 
L 254.196364 307.584 
L 249.043117 307.584 
z
" clip-path="url(#pdb9a494ca2)" style="fill: #1f77b4; fill-opacity: 0.75; stroke: #000000; stroke-width: 0.515325; stroke-linejoin: miter"/>
   </g>
   <g id="patch_38">
    <path d="M 254.196364 307.584 
L 259.34961 307.584 
L 259.34961 307.584 
L 254.196364 307.584 
z
" clip-path="url(#pdb9a494ca2)" style="fill: #1f77b4; fill-opacity: 0.75; stroke: #000000; stroke-width: 0.515325; stroke-linejoin: miter"/>
   </g>
   <g id="patch_39">
    <path d="M 259.34961 307.584 
L 264.502857 307.584 
L 264.502857 307.584 
L 259.34961 307.584 
z
" clip-path="url(#pdb9a494ca2)" style="fill: #1f77b4; fill-opacity: 0.75; stroke: #000000; stroke-width: 0.515325; stroke-linejoin: miter"/>
   </g>
   <g id="patch_40">
    <path d="M 264.502857 307.584 
L 269.656104 307.584 
L 269.656104 307.584 
L 264.502857 307.584 
z
" clip-path="url(#pdb9a494ca2)" style="fill: #1f77b4; fill-opacity: 0.75; stroke: #000000; stroke-width: 0.515325; stroke-linejoin: miter"/>
   </g>
   <g id="patch_41">
    <path d="M 269.656104 307.584 
L 274.809351 307.584 
L 274.809351 304.997878 
L 269.656104 304.997878 
z
" clip-path="url(#pdb9a494ca2)" style="fill: #1f77b4; fill-opacity: 0.75; stroke: #000000; stroke-width: 0.515325; stroke-linejoin: miter"/>
   </g>
   <g id="patch_42">
    <path d="M 274.809351 307.584 
L 279.962597 307.584 
L 279.962597 306.290939 
L 274.809351 306.290939 
z
" clip-path="url(#pdb9a494ca2)" style="fill: #1f77b4; fill-opacity: 0.75; stroke: #000000; stroke-width: 0.515325; stroke-linejoin: miter"/>
   </g>
   <g id="patch_43">
    <path d="M 279.962597 307.584 
L 285.115844 307.584 
L 285.115844 307.584 
L 279.962597 307.584 
z
" clip-path="url(#pdb9a494ca2)" style="fill: #1f77b4; fill-opacity: 0.75; stroke: #000000; stroke-width: 0.515325; stroke-linejoin: miter"/>
   </g>
   <g id="patch_44">
    <path d="M 285.115844 307.584 
L 290.269091 307.584 
L 290.269091 307.584 
L 285.115844 307.584 
z
" clip-path="url(#pdb9a494ca2)" style="fill: #1f77b4; fill-opacity: 0.75; stroke: #000000; stroke-width: 0.515325; stroke-linejoin: miter"/>
   </g>
   <g id="patch_45">
    <path d="M 290.269091 307.584 
L 295.422338 307.584 
L 295.422338 307.584 
L 290.269091 307.584 
z
" clip-path="url(#pdb9a494ca2)" style="fill: #1f77b4; fill-opacity: 0.75; stroke: #000000; stroke-width: 0.515325; stroke-linejoin: miter"/>
   </g>
   <g id="patch_46">
    <path d="M 295.422338 307.584 
L 300.575584 307.584 
L 300.575584 307.584 
L 295.422338 307.584 
z
" clip-path="url(#pdb9a494ca2)" style="fill: #1f77b4; fill-opacity: 0.75; stroke: #000000; stroke-width: 0.515325; stroke-linejoin: miter"/>
   </g>
   <g id="patch_47">
    <path d="M 300.575584 307.584 
L 305.728831 307.584 
L 305.728831 307.584 
L 300.575584 307.584 
z
" clip-path="url(#pdb9a494ca2)" style="fill: #1f77b4; fill-opacity: 0.75; stroke: #000000; stroke-width: 0.515325; stroke-linejoin: miter"/>
   </g>
   <g id="patch_48">
    <path d="M 305.728831 307.584 
L 310.882078 307.584 
L 310.882078 307.584 
L 305.728831 307.584 
z
" clip-path="url(#pdb9a494ca2)" style="fill: #1f77b4; fill-opacity: 0.75; stroke: #000000; stroke-width: 0.515325; stroke-linejoin: miter"/>
   </g>
   <g id="patch_49">
    <path d="M 310.882078 307.584 
L 316.035325 307.584 
L 316.035325 307.584 
L 310.882078 307.584 
z
" clip-path="url(#pdb9a494ca2)" style="fill: #1f77b4; fill-opacity: 0.75; stroke: #000000; stroke-width: 0.515325; stroke-linejoin: miter"/>
   </g>
   <g id="patch_50">
    <path d="M 316.035325 307.584 
L 321.188571 307.584 
L 321.188571 307.584 
L 316.035325 307.584 
z
" clip-path="url(#pdb9a494ca2)" style="fill: #1f77b4; fill-opacity: 0.75; stroke: #000000; stroke-width: 0.515325; stroke-linejoin: miter"/>
   </g>
   <g id="patch_51">
    <path d="M 321.188571 307.584 
L 326.341818 307.584 
L 326.341818 307.584 
L 321.188571 307.584 
z
" clip-path="url(#pdb9a494ca2)" style="fill: #1f77b4; fill-opacity: 0.75; stroke: #000000; stroke-width: 0.515325; stroke-linejoin: miter"/>
   </g>
   <g id="patch_52">
    <path d="M 326.341818 307.584 
L 331.495065 307.584 
L 331.495065 307.584 
L 326.341818 307.584 
z
" clip-path="url(#pdb9a494ca2)" style="fill: #1f77b4; fill-opacity: 0.75; stroke: #000000; stroke-width: 0.515325; stroke-linejoin: miter"/>
   </g>
   <g id="patch_53">
    <path d="M 331.495065 307.584 
L 336.648312 307.584 
L 336.648312 307.584 
L 331.495065 307.584 
z
" clip-path="url(#pdb9a494ca2)" style="fill: #1f77b4; fill-opacity: 0.75; stroke: #000000; stroke-width: 0.515325; stroke-linejoin: miter"/>
   </g>
   <g id="patch_54">
    <path d="M 336.648312 307.584 
L 341.801558 307.584 
L 341.801558 307.584 
L 336.648312 307.584 
z
" clip-path="url(#pdb9a494ca2)" style="fill: #1f77b4; fill-opacity: 0.75; stroke: #000000; stroke-width: 0.515325; stroke-linejoin: miter"/>
   </g>
   <g id="patch_55">
    <path d="M 341.801558 307.584 
L 346.954805 307.584 
L 346.954805 307.584 
L 341.801558 307.584 
z
" clip-path="url(#pdb9a494ca2)" style="fill: #1f77b4; fill-opacity: 0.75; stroke: #000000; stroke-width: 0.515325; stroke-linejoin: miter"/>
   </g>
   <g id="patch_56">
    <path d="M 346.954805 307.584 
L 352.108052 307.584 
L 352.108052 307.584 
L 346.954805 307.584 
z
" clip-path="url(#pdb9a494ca2)" style="fill: #1f77b4; fill-opacity: 0.75; stroke: #000000; stroke-width: 0.515325; stroke-linejoin: miter"/>
   </g>
   <g id="patch_57">
    <path d="M 352.108052 307.584 
L 357.261299 307.584 
L 357.261299 307.584 
L 352.108052 307.584 
z
" clip-path="url(#pdb9a494ca2)" style="fill: #1f77b4; fill-opacity: 0.75; stroke: #000000; stroke-width: 0.515325; stroke-linejoin: miter"/>
   </g>
   <g id="patch_58">
    <path d="M 357.261299 307.584 
L 362.414545 307.584 
L 362.414545 307.584 
L 357.261299 307.584 
z
" clip-path="url(#pdb9a494ca2)" style="fill: #1f77b4; fill-opacity: 0.75; stroke: #000000; stroke-width: 0.515325; stroke-linejoin: miter"/>
   </g>
   <g id="patch_59">
    <path d="M 362.414545 307.584 
L 367.567792 307.584 
L 367.567792 307.584 
L 362.414545 307.584 
z
" clip-path="url(#pdb9a494ca2)" style="fill: #1f77b4; fill-opacity: 0.75; stroke: #000000; stroke-width: 0.515325; stroke-linejoin: miter"/>
   </g>
   <g id="patch_60">
    <path d="M 367.567792 307.584 
L 372.721039 307.584 
L 372.721039 307.584 
L 367.567792 307.584 
z
" clip-path="url(#pdb9a494ca2)" style="fill: #1f77b4; fill-opacity: 0.75; stroke: #000000; stroke-width: 0.515325; stroke-linejoin: miter"/>
   </g>
   <g id="patch_61">
    <path d="M 372.721039 307.584 
L 377.874286 307.584 
L 377.874286 307.584 
L 372.721039 307.584 
z
" clip-path="url(#pdb9a494ca2)" style="fill: #1f77b4; fill-opacity: 0.75; stroke: #000000; stroke-width: 0.515325; stroke-linejoin: miter"/>
   </g>
   <g id="patch_62">
    <path d="M 377.874286 307.584 
L 383.027532 307.584 
L 383.027532 307.584 
L 377.874286 307.584 
z
" clip-path="url(#pdb9a494ca2)" style="fill: #1f77b4; fill-opacity: 0.75; stroke: #000000; stroke-width: 0.515325; stroke-linejoin: miter"/>
   </g>
   <g id="patch_63">
    <path d="M 383.027532 307.584 
L 388.180779 307.584 
L 388.180779 307.584 
L 383.027532 307.584 
z
" clip-path="url(#pdb9a494ca2)" style="fill: #1f77b4; fill-opacity: 0.75; stroke: #000000; stroke-width: 0.515325; stroke-linejoin: miter"/>
   </g>
   <g id="patch_64">
    <path d="M 388.180779 307.584 
L 393.334026 307.584 
L 393.334026 307.584 
L 388.180779 307.584 
z
" clip-path="url(#pdb9a494ca2)" style="fill: #1f77b4; fill-opacity: 0.75; stroke: #000000; stroke-width: 0.515325; stroke-linejoin: miter"/>
   </g>
   <g id="patch_65">
    <path d="M 393.334026 307.584 
L 398.487273 307.584 
L 398.487273 306.290939 
L 393.334026 306.290939 
z
" clip-path="url(#pdb9a494ca2)" style="fill: #1f77b4; fill-opacity: 0.75; stroke: #000000; stroke-width: 0.515325; stroke-linejoin: miter"/>
   </g>
   <g id="matplotlib.axis_1">
    <g id="xtick_1">
     <g id="line2d_1">
      <defs>
       <path id="ma350b95204" d="M 0 0 
L 0 3.5 
" style="stroke: #000000; stroke-width: 0.8"/>
      </defs>
      <g>
       <use xlink:href="#ma350b95204" x="73.724869" y="307.584" style="stroke: #000000; stroke-width: 0.8"/>
      </g>
     </g>
     <g id="text_1">
      <!-- 0 -->
      <g transform="translate(70.543619 322.182437) scale(0.1 -0.1)">
       <defs>
        <path id="DejaVuSans-30" d="M 2034 4250 
Q 1547 4250 1301 3770 
Q 1056 3291 1056 2328 
Q 1056 1369 1301 889 
Q 1547 409 2034 409 
Q 2525 409 2770 889 
Q 3016 1369 3016 2328 
Q 3016 3291 2770 3770 
Q 2525 4250 2034 4250 
z
M 2034 4750 
Q 2819 4750 3233 4129 
Q 3647 3509 3647 2328 
Q 3647 1150 3233 529 
Q 2819 -91 2034 -91 
Q 1250 -91 836 529 
Q 422 1150 422 2328 
Q 422 3509 836 4129 
Q 1250 4750 2034 4750 
z
" transform="scale(0.015625)"/>
       </defs>
       <use xlink:href="#DejaVuSans-30"/>
      </g>
     </g>
    </g>
    <g id="xtick_2">
     <g id="line2d_2">
      <g>
       <use xlink:href="#ma350b95204" x="119.989709" y="307.584" style="stroke: #000000; stroke-width: 0.8"/>
      </g>
     </g>
     <g id="text_2">
      <!-- 5 -->
      <g transform="translate(116.808459 322.182437) scale(0.1 -0.1)">
       <defs>
        <path id="DejaVuSans-35" d="M 691 4666 
L 3169 4666 
L 3169 4134 
L 1269 4134 
L 1269 2991 
Q 1406 3038 1543 3061 
Q 1681 3084 1819 3084 
Q 2600 3084 3056 2656 
Q 3513 2228 3513 1497 
Q 3513 744 3044 326 
Q 2575 -91 1722 -91 
Q 1428 -91 1123 -41 
Q 819 9 494 109 
L 494 744 
Q 775 591 1075 516 
Q 1375 441 1709 441 
Q 2250 441 2565 725 
Q 2881 1009 2881 1497 
Q 2881 1984 2565 2268 
Q 2250 2553 1709 2553 
Q 1456 2553 1204 2497 
Q 953 2441 691 2322 
L 691 4666 
z
" transform="scale(0.015625)"/>
       </defs>
       <use xlink:href="#DejaVuSans-35"/>
      </g>
     </g>
    </g>
    <g id="xtick_3">
     <g id="line2d_3">
      <g>
       <use xlink:href="#ma350b95204" x="166.254549" y="307.584" style="stroke: #000000; stroke-width: 0.8"/>
      </g>
     </g>
     <g id="text_3">
      <!-- 10 -->
      <g transform="translate(159.892049 322.182437) scale(0.1 -0.1)">
       <defs>
        <path id="DejaVuSans-31" d="M 794 531 
L 1825 531 
L 1825 4091 
L 703 3866 
L 703 4441 
L 1819 4666 
L 2450 4666 
L 2450 531 
L 3481 531 
L 3481 0 
L 794 0 
L 794 531 
z
" transform="scale(0.015625)"/>
       </defs>
       <use xlink:href="#DejaVuSans-31"/>
       <use xlink:href="#DejaVuSans-30" x="63.623047"/>
      </g>
     </g>
    </g>
    <g id="xtick_4">
     <g id="line2d_4">
      <g>
       <use xlink:href="#ma350b95204" x="212.519389" y="307.584" style="stroke: #000000; stroke-width: 0.8"/>
      </g>
     </g>
     <g id="text_4">
      <!-- 15 -->
      <g transform="translate(206.156889 322.182437) scale(0.1 -0.1)">
       <use xlink:href="#DejaVuSans-31"/>
       <use xlink:href="#DejaVuSans-35" x="63.623047"/>
      </g>
     </g>
    </g>
    <g id="xtick_5">
     <g id="line2d_5">
      <g>
       <use xlink:href="#ma350b95204" x="258.784228" y="307.584" style="stroke: #000000; stroke-width: 0.8"/>
      </g>
     </g>
     <g id="text_5">
      <!-- 20 -->
      <g transform="translate(252.421728 322.182437) scale(0.1 -0.1)">
       <defs>
        <path id="DejaVuSans-32" d="M 1228 531 
L 3431 531 
L 3431 0 
L 469 0 
L 469 531 
Q 828 903 1448 1529 
Q 2069 2156 2228 2338 
Q 2531 2678 2651 2914 
Q 2772 3150 2772 3378 
Q 2772 3750 2511 3984 
Q 2250 4219 1831 4219 
Q 1534 4219 1204 4116 
Q 875 4013 500 3803 
L 500 4441 
Q 881 4594 1212 4672 
Q 1544 4750 1819 4750 
Q 2544 4750 2975 4387 
Q 3406 4025 3406 3419 
Q 3406 3131 3298 2873 
Q 3191 2616 2906 2266 
Q 2828 2175 2409 1742 
Q 1991 1309 1228 531 
z
" transform="scale(0.015625)"/>
       </defs>
       <use xlink:href="#DejaVuSans-32"/>
       <use xlink:href="#DejaVuSans-30" x="63.623047"/>
      </g>
     </g>
    </g>
    <g id="xtick_6">
     <g id="line2d_6">
      <g>
       <use xlink:href="#ma350b95204" x="305.049068" y="307.584" style="stroke: #000000; stroke-width: 0.8"/>
      </g>
     </g>
     <g id="text_6">
      <!-- 25 -->
      <g transform="translate(298.686568 322.182437) scale(0.1 -0.1)">
       <use xlink:href="#DejaVuSans-32"/>
       <use xlink:href="#DejaVuSans-35" x="63.623047"/>
      </g>
     </g>
    </g>
    <g id="xtick_7">
     <g id="line2d_7">
      <g>
       <use xlink:href="#ma350b95204" x="351.313908" y="307.584" style="stroke: #000000; stroke-width: 0.8"/>
      </g>
     </g>
     <g id="text_7">
      <!-- 30 -->
      <g transform="translate(344.951408 322.182437) scale(0.1 -0.1)">
       <defs>
        <path id="DejaVuSans-33" d="M 2597 2516 
Q 3050 2419 3304 2112 
Q 3559 1806 3559 1356 
Q 3559 666 3084 287 
Q 2609 -91 1734 -91 
Q 1441 -91 1130 -33 
Q 819 25 488 141 
L 488 750 
Q 750 597 1062 519 
Q 1375 441 1716 441 
Q 2309 441 2620 675 
Q 2931 909 2931 1356 
Q 2931 1769 2642 2001 
Q 2353 2234 1838 2234 
L 1294 2234 
L 1294 2753 
L 1863 2753 
Q 2328 2753 2575 2939 
Q 2822 3125 2822 3475 
Q 2822 3834 2567 4026 
Q 2313 4219 1838 4219 
Q 1578 4219 1281 4162 
Q 984 4106 628 3988 
L 628 4550 
Q 988 4650 1302 4700 
Q 1616 4750 1894 4750 
Q 2613 4750 3031 4423 
Q 3450 4097 3450 3541 
Q 3450 3153 3228 2886 
Q 3006 2619 2597 2516 
z
" transform="scale(0.015625)"/>
       </defs>
       <use xlink:href="#DejaVuSans-33"/>
       <use xlink:href="#DejaVuSans-30" x="63.623047"/>
      </g>
     </g>
    </g>
    <g id="xtick_8">
     <g id="line2d_8">
      <g>
       <use xlink:href="#ma350b95204" x="397.578748" y="307.584" style="stroke: #000000; stroke-width: 0.8"/>
      </g>
     </g>
     <g id="text_8">
      <!-- 35 -->
      <g transform="translate(391.216248 322.182437) scale(0.1 -0.1)">
       <use xlink:href="#DejaVuSans-33"/>
       <use xlink:href="#DejaVuSans-35" x="63.623047"/>
      </g>
     </g>
    </g>
    <g id="text_9">
     <!-- Length [m] -->
     <g transform="translate(208.552188 335.860562) scale(0.1 -0.1)">
      <defs>
       <path id="DejaVuSans-4c" d="M 628 4666 
L 1259 4666 
L 1259 531 
L 3531 531 
L 3531 0 
L 628 0 
L 628 4666 
z
" transform="scale(0.015625)"/>
       <path id="DejaVuSans-65" d="M 3597 1894 
L 3597 1613 
L 953 1613 
Q 991 1019 1311 708 
Q 1631 397 2203 397 
Q 2534 397 2845 478 
Q 3156 559 3463 722 
L 3463 178 
Q 3153 47 2828 -22 
Q 2503 -91 2169 -91 
Q 1331 -91 842 396 
Q 353 884 353 1716 
Q 353 2575 817 3079 
Q 1281 3584 2069 3584 
Q 2775 3584 3186 3129 
Q 3597 2675 3597 1894 
z
M 3022 2063 
Q 3016 2534 2758 2815 
Q 2500 3097 2075 3097 
Q 1594 3097 1305 2825 
Q 1016 2553 972 2059 
L 3022 2063 
z
" transform="scale(0.015625)"/>
       <path id="DejaVuSans-6e" d="M 3513 2113 
L 3513 0 
L 2938 0 
L 2938 2094 
Q 2938 2591 2744 2837 
Q 2550 3084 2163 3084 
Q 1697 3084 1428 2787 
Q 1159 2491 1159 1978 
L 1159 0 
L 581 0 
L 581 3500 
L 1159 3500 
L 1159 2956 
Q 1366 3272 1645 3428 
Q 1925 3584 2291 3584 
Q 2894 3584 3203 3211 
Q 3513 2838 3513 2113 
z
" transform="scale(0.015625)"/>
       <path id="DejaVuSans-67" d="M 2906 1791 
Q 2906 2416 2648 2759 
Q 2391 3103 1925 3103 
Q 1463 3103 1205 2759 
Q 947 2416 947 1791 
Q 947 1169 1205 825 
Q 1463 481 1925 481 
Q 2391 481 2648 825 
Q 2906 1169 2906 1791 
z
M 3481 434 
Q 3481 -459 3084 -895 
Q 2688 -1331 1869 -1331 
Q 1566 -1331 1297 -1286 
Q 1028 -1241 775 -1147 
L 775 -588 
Q 1028 -725 1275 -790 
Q 1522 -856 1778 -856 
Q 2344 -856 2625 -561 
Q 2906 -266 2906 331 
L 2906 616 
Q 2728 306 2450 153 
Q 2172 0 1784 0 
Q 1141 0 747 490 
Q 353 981 353 1791 
Q 353 2603 747 3093 
Q 1141 3584 1784 3584 
Q 2172 3584 2450 3431 
Q 2728 3278 2906 2969 
L 2906 3500 
L 3481 3500 
L 3481 434 
z
" transform="scale(0.015625)"/>
       <path id="DejaVuSans-74" d="M 1172 4494 
L 1172 3500 
L 2356 3500 
L 2356 3053 
L 1172 3053 
L 1172 1153 
Q 1172 725 1289 603 
Q 1406 481 1766 481 
L 2356 481 
L 2356 0 
L 1766 0 
Q 1100 0 847 248 
Q 594 497 594 1153 
L 594 3053 
L 172 3053 
L 172 3500 
L 594 3500 
L 594 4494 
L 1172 4494 
z
" transform="scale(0.015625)"/>
       <path id="DejaVuSans-68" d="M 3513 2113 
L 3513 0 
L 2938 0 
L 2938 2094 
Q 2938 2591 2744 2837 
Q 2550 3084 2163 3084 
Q 1697 3084 1428 2787 
Q 1159 2491 1159 1978 
L 1159 0 
L 581 0 
L 581 4863 
L 1159 4863 
L 1159 2956 
Q 1366 3272 1645 3428 
Q 1925 3584 2291 3584 
Q 2894 3584 3203 3211 
Q 3513 2838 3513 2113 
z
" transform="scale(0.015625)"/>
       <path id="DejaVuSans-20" transform="scale(0.015625)"/>
       <path id="DejaVuSans-5b" d="M 550 4863 
L 1875 4863 
L 1875 4416 
L 1125 4416 
L 1125 -397 
L 1875 -397 
L 1875 -844 
L 550 -844 
L 550 4863 
z
" transform="scale(0.015625)"/>
       <path id="DejaVuSans-6d" d="M 3328 2828 
Q 3544 3216 3844 3400 
Q 4144 3584 4550 3584 
Q 5097 3584 5394 3201 
Q 5691 2819 5691 2113 
L 5691 0 
L 5113 0 
L 5113 2094 
Q 5113 2597 4934 2840 
Q 4756 3084 4391 3084 
Q 3944 3084 3684 2787 
Q 3425 2491 3425 1978 
L 3425 0 
L 2847 0 
L 2847 2094 
Q 2847 2600 2669 2842 
Q 2491 3084 2119 3084 
Q 1678 3084 1418 2786 
Q 1159 2488 1159 1978 
L 1159 0 
L 581 0 
L 581 3500 
L 1159 3500 
L 1159 2956 
Q 1356 3278 1631 3431 
Q 1906 3584 2284 3584 
Q 2666 3584 2933 3390 
Q 3200 3197 3328 2828 
z
" transform="scale(0.015625)"/>
       <path id="DejaVuSans-5d" d="M 1947 4863 
L 1947 -844 
L 622 -844 
L 622 -397 
L 1369 -397 
L 1369 4416 
L 622 4416 
L 622 4863 
L 1947 4863 
z
" transform="scale(0.015625)"/>
      </defs>
      <use xlink:href="#DejaVuSans-4c"/>
      <use xlink:href="#DejaVuSans-65" x="53.962891"/>
      <use xlink:href="#DejaVuSans-6e" x="115.486328"/>
      <use xlink:href="#DejaVuSans-67" x="178.865234"/>
      <use xlink:href="#DejaVuSans-74" x="242.341797"/>
      <use xlink:href="#DejaVuSans-68" x="281.550781"/>
      <use xlink:href="#DejaVuSans-20" x="344.929688"/>
      <use xlink:href="#DejaVuSans-5b" x="376.716797"/>
      <use xlink:href="#DejaVuSans-6d" x="415.730469"/>
      <use xlink:href="#DejaVuSans-5d" x="513.142578"/>
     </g>
    </g>
   </g>
   <g id="matplotlib.axis_2">
    <g id="ytick_1">
     <g id="line2d_9">
      <defs>
       <path id="m40b80e9bdb" d="M 0 0 
L -3.5 0 
" style="stroke: #000000; stroke-width: 0.8"/>
      </defs>
      <g>
       <use xlink:href="#m40b80e9bdb" x="57.6" y="307.584" style="stroke: #000000; stroke-width: 0.8"/>
      </g>
     </g>
     <g id="text_10">
      <!-- 0 -->
      <g transform="translate(44.2375 311.383219) scale(0.1 -0.1)">
       <use xlink:href="#DejaVuSans-30"/>
      </g>
     </g>
    </g>
    <g id="ytick_2">
     <g id="line2d_10">
      <g>
       <use xlink:href="#m40b80e9bdb" x="57.6" y="275.257469" style="stroke: #000000; stroke-width: 0.8"/>
      </g>
     </g>
     <g id="text_11">
      <!-- 25 -->
      <g transform="translate(37.875 279.056688) scale(0.1 -0.1)">
       <use xlink:href="#DejaVuSans-32"/>
       <use xlink:href="#DejaVuSans-35" x="63.623047"/>
      </g>
     </g>
    </g>
    <g id="ytick_3">
     <g id="line2d_11">
      <g>
       <use xlink:href="#m40b80e9bdb" x="57.6" y="242.930939" style="stroke: #000000; stroke-width: 0.8"/>
      </g>
     </g>
     <g id="text_12">
      <!-- 50 -->
      <g transform="translate(37.875 246.730158) scale(0.1 -0.1)">
       <use xlink:href="#DejaVuSans-35"/>
       <use xlink:href="#DejaVuSans-30" x="63.623047"/>
      </g>
     </g>
    </g>
    <g id="ytick_4">
     <g id="line2d_12">
      <g>
       <use xlink:href="#m40b80e9bdb" x="57.6" y="210.604408" style="stroke: #000000; stroke-width: 0.8"/>
      </g>
     </g>
     <g id="text_13">
      <!-- 75 -->
      <g transform="translate(37.875 214.403627) scale(0.1 -0.1)">
       <defs>
        <path id="DejaVuSans-37" d="M 525 4666 
L 3525 4666 
L 3525 4397 
L 1831 0 
L 1172 0 
L 2766 4134 
L 525 4134 
L 525 4666 
z
" transform="scale(0.015625)"/>
       </defs>
       <use xlink:href="#DejaVuSans-37"/>
       <use xlink:href="#DejaVuSans-35" x="63.623047"/>
      </g>
     </g>
    </g>
    <g id="ytick_5">
     <g id="line2d_13">
      <g>
       <use xlink:href="#m40b80e9bdb" x="57.6" y="178.277878" style="stroke: #000000; stroke-width: 0.8"/>
      </g>
     </g>
     <g id="text_14">
      <!-- 100 -->
      <g transform="translate(31.5125 182.077096) scale(0.1 -0.1)">
       <use xlink:href="#DejaVuSans-31"/>
       <use xlink:href="#DejaVuSans-30" x="63.623047"/>
       <use xlink:href="#DejaVuSans-30" x="127.246094"/>
      </g>
     </g>
    </g>
    <g id="ytick_6">
     <g id="line2d_14">
      <g>
       <use xlink:href="#m40b80e9bdb" x="57.6" y="145.951347" style="stroke: #000000; stroke-width: 0.8"/>
      </g>
     </g>
     <g id="text_15">
      <!-- 125 -->
      <g transform="translate(31.5125 149.750566) scale(0.1 -0.1)">
       <use xlink:href="#DejaVuSans-31"/>
       <use xlink:href="#DejaVuSans-32" x="63.623047"/>
       <use xlink:href="#DejaVuSans-35" x="127.246094"/>
      </g>
     </g>
    </g>
    <g id="ytick_7">
     <g id="line2d_15">
      <g>
       <use xlink:href="#m40b80e9bdb" x="57.6" y="113.624816" style="stroke: #000000; stroke-width: 0.8"/>
      </g>
     </g>
     <g id="text_16">
      <!-- 150 -->
      <g transform="translate(31.5125 117.424035) scale(0.1 -0.1)">
       <use xlink:href="#DejaVuSans-31"/>
       <use xlink:href="#DejaVuSans-35" x="63.623047"/>
       <use xlink:href="#DejaVuSans-30" x="127.246094"/>
      </g>
     </g>
    </g>
    <g id="ytick_8">
     <g id="line2d_16">
      <g>
       <use xlink:href="#m40b80e9bdb" x="57.6" y="81.298286" style="stroke: #000000; stroke-width: 0.8"/>
      </g>
     </g>
     <g id="text_17">
      <!-- 175 -->
      <g transform="translate(31.5125 85.097504) scale(0.1 -0.1)">
       <use xlink:href="#DejaVuSans-31"/>
       <use xlink:href="#DejaVuSans-37" x="63.623047"/>
       <use xlink:href="#DejaVuSans-35" x="127.246094"/>
      </g>
     </g>
    </g>
    <g id="ytick_9">
     <g id="line2d_17">
      <g>
       <use xlink:href="#m40b80e9bdb" x="57.6" y="48.971755" style="stroke: #000000; stroke-width: 0.8"/>
      </g>
     </g>
     <g id="text_18">
      <!-- 200 -->
      <g transform="translate(31.5125 52.770974) scale(0.1 -0.1)">
       <use xlink:href="#DejaVuSans-32"/>
       <use xlink:href="#DejaVuSans-30" x="63.623047"/>
       <use xlink:href="#DejaVuSans-30" x="127.246094"/>
      </g>
     </g>
    </g>
    <g id="text_19">
     <!-- Count -->
     <g transform="translate(25.432812 189.376437) rotate(-90) scale(0.1 -0.1)">
      <defs>
       <path id="DejaVuSans-43" d="M 4122 4306 
L 4122 3641 
Q 3803 3938 3442 4084 
Q 3081 4231 2675 4231 
Q 1875 4231 1450 3742 
Q 1025 3253 1025 2328 
Q 1025 1406 1450 917 
Q 1875 428 2675 428 
Q 3081 428 3442 575 
Q 3803 722 4122 1019 
L 4122 359 
Q 3791 134 3420 21 
Q 3050 -91 2638 -91 
Q 1578 -91 968 557 
Q 359 1206 359 2328 
Q 359 3453 968 4101 
Q 1578 4750 2638 4750 
Q 3056 4750 3426 4639 
Q 3797 4528 4122 4306 
z
" transform="scale(0.015625)"/>
       <path id="DejaVuSans-6f" d="M 1959 3097 
Q 1497 3097 1228 2736 
Q 959 2375 959 1747 
Q 959 1119 1226 758 
Q 1494 397 1959 397 
Q 2419 397 2687 759 
Q 2956 1122 2956 1747 
Q 2956 2369 2687 2733 
Q 2419 3097 1959 3097 
z
M 1959 3584 
Q 2709 3584 3137 3096 
Q 3566 2609 3566 1747 
Q 3566 888 3137 398 
Q 2709 -91 1959 -91 
Q 1206 -91 779 398 
Q 353 888 353 1747 
Q 353 2609 779 3096 
Q 1206 3584 1959 3584 
z
" transform="scale(0.015625)"/>
       <path id="DejaVuSans-75" d="M 544 1381 
L 544 3500 
L 1119 3500 
L 1119 1403 
Q 1119 906 1312 657 
Q 1506 409 1894 409 
Q 2359 409 2629 706 
Q 2900 1003 2900 1516 
L 2900 3500 
L 3475 3500 
L 3475 0 
L 2900 0 
L 2900 538 
Q 2691 219 2414 64 
Q 2138 -91 1772 -91 
Q 1169 -91 856 284 
Q 544 659 544 1381 
z
M 1991 3584 
L 1991 3584 
z
" transform="scale(0.015625)"/>
      </defs>
      <use xlink:href="#DejaVuSans-43"/>
      <use xlink:href="#DejaVuSans-6f" x="69.824219"/>
      <use xlink:href="#DejaVuSans-75" x="131.005859"/>
      <use xlink:href="#DejaVuSans-6e" x="194.384766"/>
      <use xlink:href="#DejaVuSans-74" x="257.763672"/>
     </g>
    </g>
   </g>
   <g id="patch_66">
    <path d="M 57.6 307.584 
L 57.6 41.472 
" style="fill: none; stroke: #000000; stroke-width: 0.8; stroke-linejoin: miter; stroke-linecap: square"/>
   </g>
   <g id="patch_67">
    <path d="M 414.72 307.584 
L 414.72 41.472 
" style="fill: none; stroke: #000000; stroke-width: 0.8; stroke-linejoin: miter; stroke-linecap: square"/>
   </g>
   <g id="patch_68">
    <path d="M 57.6 307.584 
L 414.72 307.584 
" style="fill: none; stroke: #000000; stroke-width: 0.8; stroke-linejoin: miter; stroke-linecap: square"/>
   </g>
   <g id="patch_69">
    <path d="M 57.6 41.472 
L 414.72 41.472 
" style="fill: none; stroke: #000000; stroke-width: 0.8; stroke-linejoin: miter; stroke-linecap: square"/>
   </g>
  </g>
 </g>
 <defs>
  <clipPath id="pdb9a494ca2">
   <rect x="57.6" y="41.472" width="357.12" height="266.112"/>
  </clipPath>
 </defs>
</svg>
